<?xml version="1.0" encoding="utf-8"?>
<!-- Generator: Adobe Illustrator 16.0.0, SVG Export Plug-In . SVG Version: 6.00 Build 0)  -->
<!DOCTYPE svg PUBLIC "-//W3C//DTD SVG 1.1//EN" "http://www.w3.org/Graphics/SVG/1.1/DTD/svg11.dtd">
<svg version="1.1" id="Layer_1" xmlns="http://www.w3.org/2000/svg" xmlns:xlink="http://www.w3.org/1999/xlink" x="0px" y="0px"
	 width="110px" height="110px" viewBox="0 0 110 110" enable-background="new 0 0 110 110" xml:space="preserve">
<path fill-rule="evenodd" clip-rule="evenodd" fill="none" stroke="#FFFFFF" stroke-width="3" stroke-miterlimit="10" d="
	M44.924,97.939c2.037-1.394,2.94-3.461,3.714-5.626c0.329-0.92,0.703-1.839,1.192-2.683c0.337-0.584,0.914-1.033,1.366-1.557
	c0.155-0.181,0.352-0.398,0.367-0.611c0.156-2.114,0.279-4.231,0.408-6.349c0.002-0.05-0.024-0.102-0.046-0.186
	c-0.326,0-0.651,0-0.978,0c-0.179,1.125-0.316,2.256-0.546,3.368c-0.714,3.458-2.285,6.426-5.303,8.517
	c-2.713,1.879-5.774,2.594-9.056,2.422c-2.834-0.147-5.497-0.89-7.784-2.599c-2.872-2.146-4.003-5.052-3.639-8.516
	c0.262-2.489,1.351-4.59,3.418-6.124c1.978-1.467,4.269-1.854,6.688-1.729c0.313,0.016,0.623,0.063,1.027,0.104
	c-0.157,0.292-0.289,0.54-0.425,0.786c-0.664,1.206-1.17,2.463-1.321,3.839c-0.316,2.862,1.225,4.878,4.144,5.417
	c3.488,0.643,6.977-2.04,7.109-5.522c-0.926,0-1.852,0.014-2.776-0.005c-0.962-0.018-1.875-0.231-2.686-0.768
	c-1.628-1.077-1.63-2.969-0.009-4.051c0.845-0.563,1.797-0.756,2.798-0.771c0.703-0.011,1.405-0.002,2.203-0.002
	c-0.1-0.302-0.16-0.537-0.255-0.759c-1.84-4.282-5.052-7.27-9.254-9.31c-1.993-0.966-4.079-1.64-6.323-1.767
	c-4.58-0.256-8.315,2.303-9.609,6.611c-0.77,2.563-0.689,5.081,0.496,7.525c0.031,0.064,0.048,0.136,0.108,0.313
	c-0.826-0.239-1.587-0.439-2.334-0.681c-2.936-0.952-5.679-2.257-7.935-4.371c-4.278-4.008-5.541-8.864-3.738-14.32
	c2.011-6.085,6.258-10.054,12.727-11.399c4.263-0.887,8.51-0.37,12.608,1.053C38.443,50.679,43.553,55.44,47,61.976
	c2.124,4.027,3.271,8.341,3.754,12.833c0.057,0.532,0.123,0.567,1.017,0.401c-0.284-1.74-0.522-3.493-0.862-5.229
	c-1.314-6.707-4.026-12.9-7.315-18.883c-1.024-1.863-2.089-3.736-2.821-5.716c-1.349-3.642-1.022-7.349,0.111-11.007
	c0.778-2.511,1.998-4.832,3.204-7.162c3.476-6.709,6.935-13.426,10.395-20.143c0.231-0.448,0.424-0.915,0.674-1.455
	c0.209,0.459,0.368,0.844,0.557,1.212c2.704,5.263,5.416,10.521,8.117,15.785c1.604,3.126,3.254,6.229,4.762,9.398
	c1.133,2.384,1.723,4.936,1.84,7.573c0.141,3.137-0.629,6.055-2.134,8.828c-1.641,3.025-3.284,6.055-4.751,9.162
	c-2.566,5.437-4.126,11.165-4.75,17.128c-0.018,0.161-0.02,0.325-0.03,0.539c0.243,0,0.47,0,0.737,0
	C59.666,74.173,59.807,73.082,60,72c1.061-5.913,3.311-11.317,7.354-15.905c4.608-5.23,10.396-8.383,17.461-9.163
	c3.092-0.343,6.189-0.324,9.119,0.802c6.289,2.416,10.105,6.924,11.059,13.461c0.823,5.652-1.627,10.017-6.33,13.238
	c-2.431,1.663-5.168,2.675-8.021,3.403c-0.051,0.013-0.107,0.002-0.225,0.002c0.086-0.2,0.158-0.372,0.235-0.544
	c2.072-4.574,0.242-10.921-4.71-13.066c-2.271-0.985-4.629-1.027-6.975-0.394c-5.985,1.614-10.537,4.962-13.119,10.61
	c-0.09,0.197-0.162,0.404-0.235,0.609c-0.018,0.048-0.009,0.105-0.017,0.243c0.766,0,1.52-0.003,2.274,0.001
	c1.198,0.009,2.329,0.232,3.253,1.047c1.203,1.06,1.166,2.566-0.088,3.576c-0.871,0.701-1.906,0.951-3.008,0.969
	c-0.98,0.015-1.962,0.003-2.952,0.003c0.749,4.45,4.038,6.206,7.604,5.416c2.638-0.584,4.181-2.896,3.624-5.518
	c-0.256-1.208-0.8-2.358-1.232-3.528c-0.105-0.285-0.289-0.541-0.498-0.924c0.809-0.033,1.538-0.111,2.262-0.084
	c3.41,0.125,6.16,1.423,7.822,4.45c2.272,4.136,1.217,9.765-3.422,12.524c-5.125,3.051-12.371,2.641-16.858-1.078
	c-2.409-1.995-3.724-4.614-4.368-7.58c-0.223-1.025-0.328-2.076-0.488-3.113c-0.027-0.175-0.061-0.35-0.092-0.537
	c-0.3,0-0.57,0-0.938,0c0.076,1.422,0.149,2.811,0.226,4.197c0.008,0.145,0.037,0.289,0.043,0.434c0.041,1.132,0.2,2.153,1.199,2.99
	c0.951,0.795,1.414,1.979,1.828,3.134c0.222,0.615,0.436,1.233,0.648,1.852c0.764,2.232,1.225,2.904,3.131,4.482
	c-2.141-0.062-4.145-0.063-5.881-1.385c-0.414,2.546-2.012,4.534-3.188,6.716c-0.396,0.734-0.789,1.472-1.22,2.275
	c-0.178-0.314-0.321-0.592-0.485-0.857c-0.987-1.6-1.99-3.188-2.965-4.794c-0.612-1.009-1.015-2.095-1.105-3.352
	C48.982,97.924,46.973,97.962,44.924,97.939z"/>
</svg>
